<?xml version="1.0" encoding="utf-8"?>
<!-- Generator: Adobe Illustrator 28.0.0, SVG Export Plug-In . SVG Version: 6.00 Build 0)  -->
<svg version="1.1" id="Layer_1" xmlns="http://www.w3.org/2000/svg" xmlns:xlink="http://www.w3.org/1999/xlink" x="0px" y="0px"
	 viewBox="0 0 1000 1000" style="enable-background:new 0 0 1000 1000;" xml:space="preserve">
<style type="text/css">
	.st0{fill:#231F20;}
	.st1{fill:#22C55E;}
	.st2{fill:#38BDF8;}
	.st3{fill:#FACC15;}
	.st4{fill:#B91C1C;}
	.st5{display:none;fill:none;stroke:#FFFFFF;stroke-width:0.9572;stroke-miterlimit:10;}
</style>
<circle class="st0" cx="500" cy="500" r="69.6"/>
<path class="st0" d="M500,291.3c-115.3,0-208.7,93.4-208.7,208.7S384.7,708.7,500,708.7S708.7,615.3,708.7,500
	S615.3,291.3,500,291.3z M500,639.1c-76.8,0-139.1-62.3-139.1-139.1S423.2,360.9,500,360.9S639.1,423.2,639.1,500
	S576.8,639.1,500,639.1z"/>
<g>
	<g>
		<circle class="st1" cx="500" cy="927.4" r="69.6"/>
	</g>
	<path class="st1" d="M500,840.5c45,0,82,34.2,86.5,78c80.5-17,152.4-57.1,208.4-113.1l-122.2-50.7l-23.5-9.7
		c-26.8,17.1-56.8,29.7-88.8,36.8c-19.5,4.3-39.7,6.6-60.4,6.6s-41-2.3-60.4-6.6c-32-7.1-62-19.7-88.8-36.8l-23.5,9.7L205,805.4
		c56.1,56,128,96.1,208.4,113.1C418,874.6,455,840.5,500,840.5z"/>
</g>
<g>
	<g>
		<circle class="st2" cx="927.4" cy="500" r="69.6"/>
	</g>
	<path class="st2" d="M840.5,500c0-45,34.2-82,78-86.5c-17-80.5-57.1-152.4-113.1-208.4l-50.7,122.2l-9.7,23.5
		c17.1,26.8,29.7,56.8,36.8,88.8c4.3,19.5,6.6,39.7,6.6,60.4c0,20.7-2.3,41-6.6,60.4c-7.1,32-19.7,62-36.8,88.8l9.7,23.5L805.4,795
		c56-56.1,96.1-128,113.1-208.4C874.6,582,840.5,545,840.5,500z"/>
</g>
<g>
	<g>
		<circle class="st3" cx="500" cy="72.6" r="69.6"/>
	</g>
	<path class="st3" d="M586.5,81.6c-4.5,43.8-41.5,78-86.5,78s-82-34.2-86.5-78C333,98.5,261.1,138.6,205,194.6l122.2,50.7l23.5,9.7
		c26.8-17.1,56.8-29.7,88.8-36.8c19.5-4.3,39.7-6.6,60.4-6.6s41,2.3,60.4,6.6c32,7.1,62,19.7,88.8,36.8l23.5-9.7L795,194.6
		C738.9,138.6,667,98.5,586.5,81.6z"/>
</g>
<g>
	<path class="st4" d="M211.7,500c0-20.7,2.3-41,6.6-60.4c7.1-32,19.7-62,36.8-88.8l-9.7-23.5L194.6,205
		c-56,56.1-96.1,128-113.1,208.4c43.8,4.5,78,41.5,78,86.5s-34.2,82-78,86.5c17,80.5,57.1,152.4,113.1,208.4l50.7-122.2l9.7-23.5
		c-17.1-26.8-29.7-56.8-36.8-88.8C214,541,211.7,520.7,211.7,500z"/>
	<g>
		<circle class="st4" cx="72.6" cy="500" r="69.6"/>
	</g>
</g>
<line class="st5" x1="86.5" y1="913.5" x2="913.5" y2="86.5"/>
<line class="st5" x1="86.5" y1="86.5" x2="913.5" y2="913.5"/>
</svg>
